FFmpeg version SVN-r25716, Copyright (c) 2000-2010 the FFmpeg developers  built on Nov 10 2010 12:23:18 with gcc 4.1.2 20080704 (Red Hat 4.1.2-48)  configuration: --enable-libmp3lame --enable-shared --disable-mmx --arch=x86_64  libavutil     50.33. 0 / 50.33. 0  libavcore      0.12. 1 /  0.12. 1  libavcodec    52.94. 4 / 52.94. 4  libavformat   52.84. 0 / 52.84. 0  libavdevice   52. 2. 2 / 52. 2. 2  libavfilter    1.59. 0 /  1.59. 0  libswscale     0.12. 0 /  0.12. 0Input #0, avi, from '/RAID10/data/converted_video_files/19325.avi':  Metadata:    encoder         : CanonMVI01  Duration: 00:02:59.99, start: 0.000000, bitrate: 1670 kb/s    Stream #0.0: Video: mjpeg, yuvj422p, 320x240, 15 tbr, 15 tbn, 15 tbc    Stream #0.1: Audio: pcm_u8, 11024 Hz, 1 channels, u8, 88 kb/s[buffer @ 0x53e6d40] w:320 h:240 pixfmt:yuvj422p[ffsink @ 0x53f4010] auto-inserting filter 'auto-inserted scaler 0' between the filter 'src' and the filter 'out'[scale @ 0x53f4330] w:320 h:240 fmt:yuvj422p -> w:320 h:240 fmt:yuv420p flags:0x4Output #0, flv, to '/RAID10/data/converted_video_files/19325.flv':  Metadata:    encoder         : Lavf52.84.0    Stream #0.0: Video: flv, yuv420p, 320x240, q=2-31, 600 kb/s, 1k tbn, 24 tbc    Stream #0.1: Audio: libmp3lame, 22050 Hz, 1 channels, s16, 96 kb/sStream mapping:  Stream #0.0 -> #0.0  Stream #0.1 -> #0.1Press [q] to stop encodingWarning, using s16 intermediate sample format for resamplingframe=   83 fps=  0 q=2.0 size=     368kB time=5.50 bitrate= 548.2kbits/s    frame=  142 fps=136 q=2.0 size=     634kB time=9.42 bitrate= 551.2kbits/s    frame=  232 fps=148 q=2.0 size=    1042kB time=15.42 bitrate= 553.7kbits/s    frame=  300 fps=145 q=2.0 size=    1343kB time=19.96 bitrate= 551.1kbits/s    frame=  388 fps=152 q=2.0 size=    1748kB time=25.83 bitrate= 554.3kbits/s    frame=  465 fps=152 q=2.0 size=    2090kB time=30.93 bitrate= 553.5kbits/s    frame=  553 fps=155 q=1.6 size=    2498kB time=36.83 bitrate= 555.5kbits/s    frame=  643 fps=158 q=2.0 size=    2908kB time=42.83 bitrate= 556.2kbits/s    frame=  732 fps=161 q=2.0 size=    3315kB time=48.75 bitrate= 557.1kbits/s    frame=  815 fps=161 q=2.0 size=    3705kB time=54.29 bitrate= 559.1kbits/s    frame=  900 fps=162 q=2.0 size=    4105kB time=59.96 bitrate= 560.9kbits/s    frame=  990 fps=163 q=2.0 size=    4534kB time=65.93 bitrate= 563.3kbits/s    frame= 1076 fps=164 q=2.0 size=    4943kB time=71.71 bitrate= 564.7kbits/s    frame= 1150 fps=163 q=2.0 size=    5294kB time=76.62 bitrate= 565.9kbits/s    frame= 1232 fps=163 q=2.0 size=    5686kB time=82.08 bitrate= 567.4kbits/s    frame= 1319 fps=163 q=2.0 size=    6098kB time=87.92 bitrate= 568.2kbits/s    frame= 1409 fps=164 q=2.0 size=    6527kB time=93.92 bitrate= 569.3kbits/s    frame= 1498 fps=165 q=2.0 size=    6940kB time=99.83 bitrate= 569.5kbits/s    frame= 1581 fps=165 q=2.0 size=    7325kB time=105.38 bitrate= 569.5kbits/s    frame= 1673 fps=166 q=2.0 size=    7751kB time=111.50 bitrate= 569.5kbits/s    frame= 1753 fps=165 q=1.6 size=    8115kB time=116.83 bitrate= 569.0kbits/s    frame= 1828 fps=165 q=2.0 size=    8452kB time=121.83 bitrate= 568.3kbits/s    frame= 1912 fps=165 q=2.0 size=    8828kB time=127.42 bitrate= 567.6kbits/s    frame= 2004 fps=165 q=2.0 size=    9228kB time=133.58 bitrate= 565.9kbits/s    frame= 2092 fps=166 q=2.0 size=    9615kB time=139.42 bitrate= 565.0kbits/s    frame= 2179 fps=166 q=2.0 size=    9983kB time=145.25 bitrate= 563.0kbits/s    [mjpeg @ 0x53e0eb0] mjpeg_decode_dc: bad vlc: 0:0 (0x54f2ec0)[mjpeg @ 0x53e0eb0] error dc[mjpeg @ 0x53e0eb0] error y=21 x=19frame= 2183 fps=165 q=2.0 Lsize=   10008kB time=145.50 bitrate= 563.5kbits/s    video:8175kB audio:1712kB global headers:0kB muxing overhead 1.231929%